<svg width="1500" height="231" viewBox="0 0 1500 231" fill="none" xmlns="http://www.w3.org/2000/svg">
<g clip-path="url(#clip0_5607_3)">
<g clip-path="url(#clip1_5607_3)">
<g clip-path="url(#clip2_5607_3)">
<g clip-path="url(#clip3_5607_3)">
<g clip-path="url(#clip4_5607_3)">
<g clip-path="url(#clip5_5607_3)">
<g clip-path="url(#clip6_5607_3)">
<path d="M83.4631 165.915C83.4631 176.059 79.9205 184.096 72.8353 190.026C65.7188 195.956 55.9962 198.922 43.6673 198.922C29.3096 198.922 17.683 196.503 8.78748 191.665V173.64C19.2436 179.882 30.4801 183.003 42.4968 183.003C49.6757 183.003 55.1378 181.599 58.8833 178.79C62.6288 175.981 64.5016 172.157 64.5016 167.319C64.5016 161.701 62.4415 157.331 58.3215 154.21C54.1703 151.089 47.2567 147.577 37.5809 143.676C28.6854 140.242 21.5533 135.951 16.1848 130.801C10.7851 125.651 8.08521 118.706 8.08521 109.966C8.08521 100.135 11.7995 92.2846 19.228 86.4167C26.6253 80.58 35.8642 77.6616 46.9446 77.6616C59.2735 77.6616 69.1834 79.3783 76.6744 82.8117V100.369C69.4955 95.9989 59.6636 93.814 47.1787 93.814C40.9362 93.814 35.9891 95.2498 32.3372 98.1213C28.6542 101.024 26.8126 104.738 26.8126 109.264C26.8126 112.073 27.3588 114.523 28.4513 116.615C29.5437 118.737 31.6974 120.813 34.9122 122.842C38.0959 124.87 40.4368 126.228 41.935 126.915C43.402 127.633 46.6325 129.084 51.6265 131.269C61.6144 135.326 69.4175 139.93 75.0357 145.08C80.654 150.23 83.4631 157.175 83.4631 165.915ZM202.148 116.287V197.517H183.655V120.735C183.655 112.151 181.423 105.519 176.96 100.837C172.528 96.1549 166.722 93.814 159.543 93.814C150.804 93.814 143.157 97.1693 136.602 103.88C130.048 110.591 126.77 120.188 126.77 132.673V197.517H108.511V32.0135H126.77V99.4322C133.793 84.6064 146.278 77.1934 164.225 77.1934C175.618 77.1934 184.778 80.7048 191.708 87.7276C198.668 94.7504 202.148 104.27 202.148 116.287ZM339.326 138.526C339.326 156.161 334.317 170.752 324.298 182.301C314.31 193.85 300.592 199.624 283.144 199.624C266.102 199.624 252.634 193.881 242.74 182.395C232.814 170.94 227.851 156.473 227.851 138.994C227.851 121.359 232.97 106.642 243.208 94.844C253.446 83.077 266.758 77.1934 283.144 77.1934C301.091 77.1934 314.934 82.9677 324.672 94.5163C334.442 106.065 339.326 120.735 339.326 138.526ZM247.047 138.76C247.047 151.089 250.34 161.576 256.926 170.222C263.48 178.899 272.22 183.237 283.144 183.237C294.974 183.237 304.088 178.977 310.486 170.456C316.885 161.966 320.084 151.401 320.084 138.76C320.084 125.651 317.056 114.836 311.001 106.315C304.915 97.8248 295.629 93.5799 283.144 93.5799C271.908 93.5799 263.075 97.9497 256.645 106.689C250.246 115.429 247.047 126.119 247.047 138.76ZM384.694 132.673V197.517H366.2L366.434 78.8321H384.694V99.6663C390.936 84.9965 401.704 77.6616 416.998 77.6616C419.807 77.6616 421.992 77.8177 423.553 78.1298V96.389C420.276 95.2966 416.92 94.7504 413.487 94.7504C405.216 94.7504 398.349 98.5739 392.887 106.221C387.425 113.868 384.694 122.685 384.694 132.673ZM502.208 176.917V194.474C497.058 197.283 491.284 198.688 484.885 198.688C461.476 198.688 449.771 186.749 449.771 162.871V93.814H430.81V78.8321H449.771V49.3364H468.265V78.8321H501.038V93.814H468.265V163.34C468.265 175.981 474.195 182.301 486.056 182.301C492.142 182.301 497.526 180.506 502.208 176.917ZM615.743 174.108V191.431C606.535 196.269 595.299 198.688 582.034 198.688C564.087 198.688 549.604 193.179 538.586 182.161C527.599 171.174 522.106 156.629 522.106 138.526C522.106 119.642 527.022 104.738 536.854 93.814C546.686 82.8897 559.327 77.4275 574.777 77.4275C589.603 77.4275 601.385 82.1874 610.125 91.7072C618.864 101.227 623.234 114.726 623.234 132.205C623.234 137.199 622.844 141.803 622.064 146.017H541.068C542.472 157.721 546.92 166.695 554.411 172.937C561.902 179.18 571.734 182.301 583.907 182.301C597.172 182.301 607.784 179.57 615.743 174.108ZM574.777 93.5799C565.881 93.5799 558.312 96.7792 552.07 103.178C545.827 109.576 542.16 118.706 541.068 130.567H604.741V125.885C604.741 116.053 602.088 108.203 596.782 102.335C591.475 96.4983 584.141 93.5799 574.777 93.5799ZM744.962 115.819V197.517H726.469V120.735C726.469 111.995 724.237 105.316 719.774 100.696C715.311 96.1081 709.505 93.814 702.357 93.814C693.431 93.814 685.737 97.2474 679.276 104.114C672.815 110.981 669.584 120.501 669.584 132.673V197.517H651.325V78.8321H669.584V99.4322C676.607 84.6064 689.092 77.1934 707.039 77.1934C718.557 77.1934 727.764 80.7048 734.662 87.7276C741.529 94.7504 744.962 104.114 744.962 115.819Z" fill="white"/>
<path d="M911.402 78.8321V197.517H892.909V176.917C886.666 191.587 874.259 198.922 855.688 198.922C843.983 198.922 834.729 195.441 827.925 188.481C821.152 181.552 817.765 172.235 817.765 160.53V78.8321H836.258V155.849C836.258 164.432 838.443 170.987 842.813 175.512C847.183 180.038 853.113 182.301 860.604 182.301C870.436 182.301 878.27 178.868 884.107 172.001C889.975 165.134 892.909 155.849 892.909 144.144V78.8321H911.402ZM963.839 132.673V197.517H945.346L945.58 78.8321H963.839V99.6663C970.081 84.9965 980.85 77.6616 996.144 77.6616C998.953 77.6616 1001.14 77.8177 1002.7 78.1298V96.389C999.421 95.2966 996.066 94.7504 992.632 94.7504C984.361 94.7504 977.494 98.5739 972.032 106.221C966.57 113.868 963.839 122.685 963.839 132.673ZM1041.28 32.0135V197.517H1022.78V32.0135H1041.28Z" fill="white"/>
</g>
</g>
</g>
</g>
<g clip-path="url(#clip7_5607_3)">
<g clip-path="url(#clip8_5607_3)">
<path d="M1497.89 67.598C1497.81 30.2181 1467.13 -0.100071 1429.51 0.000248242L1265.27 0.418975C1228.5 0.519294 1198.75 29.6599 1197.46 65.8489L1156.78 65.9492C1119.15 66.0496 1088.63 96.5379 1088.73 133.909L1088.81 164.035C1088.9 201.406 1119.59 231.738 1157.21 231.637L1321.45 231.223C1358.19 231.131 1387.96 201.965 1389.24 165.771L1429.94 165.675C1467.57 165.588 1498.08 135.113 1497.98 97.733L1497.89 67.598ZM1321.34 196.081L1157.13 196.499C1139 196.539 1124.24 181.923 1124.18 163.939L1124.1 133.826C1124.06 115.812 1138.76 101.153 1156.9 101.109L1197.56 100.996C1199.01 137.189 1228.94 166.199 1265.71 166.085L1353.89 165.867C1352.62 182.677 1338.62 196.037 1321.34 196.081ZM1232.92 100.9L1321.1 100.673C1338.37 100.625 1352.41 113.911 1353.79 130.716L1265.61 130.947C1248.33 130.978 1234.28 117.71 1232.92 100.9ZM1429.86 130.516L1389.15 130.629C1387.69 94.4355 1357.78 65.4433 1321.02 65.5262L1232.84 65.7617C1234.1 48.9604 1248.09 35.6005 1265.35 35.5438L1429.59 35.1294C1447.7 35.064 1462.49 49.6888 1462.52 67.6983L1462.6 97.8289C1462.66 115.808 1447.95 130.494 1429.86 130.516Z" fill="white"/>
</g>
</g>
</g>
</g>
</g>
<defs>
<clipPath id="clip0_5607_3">
<rect width="1500" height="231" fill="white" transform="translate(-0.90918 0.318726)"/>
</clipPath>
<clipPath id="clip1_5607_3">
<rect width="1497.79" height="231.638" fill="white" transform="translate(0.196289)"/>
</clipPath>
<clipPath id="clip2_5607_3">
<rect width="1497.79" height="231.638" fill="white" transform="translate(0.196289)"/>
</clipPath>
<clipPath id="clip3_5607_3">
<rect width="1048.97" height="167.61" fill="white" transform="translate(0.196289 32.0135)"/>
</clipPath>
<clipPath id="clip4_5607_3">
<rect width="1048.97" height="167.61" fill="white" transform="translate(0.196289 32.0135)"/>
</clipPath>
<clipPath id="clip5_5607_3">
<rect width="1048.97" height="167.61" fill="white" transform="translate(0.196289 32.0135)"/>
</clipPath>
<clipPath id="clip6_5607_3">
<rect width="1048.97" height="167.61" fill="white" transform="translate(0.196289 32.0135)"/>
</clipPath>
<clipPath id="clip7_5607_3">
<rect width="409.251" height="231.638" fill="white" transform="translate(1088.73)"/>
</clipPath>
<clipPath id="clip8_5607_3">
<rect width="409.251" height="231.638" fill="white" transform="translate(1088.73)"/>
</clipPath>
</defs>
</svg>
