<svg xmlns="http://www.w3.org/2000/svg" version="1.1" xmlns:xlink="http://www.w3.org/1999/xlink" xmlns:svgjs="http://svgjs.dev/svgjs" width="32" height="32" viewBox="0 0 32 32"><rect width="1500" height="1500" fill="#000000"></rect><g transform="matrix(0.6666666666666666,0,0,0.6666666666666666,249.39393939393938,673.2125220226875)"><svg viewBox="0 0 396 61" data-background-color="#ffffff" preserveAspectRatio="xMidYMid meet" height="231" width="1500" xmlns="http://www.w3.org/2000/svg" xmlns:xlink="http://www.w3.org/1999/xlink"><g id="tight-bounds" transform="matrix(1,0,0,1,0.2400000000000091,-0.08418080119440674)"><svg viewBox="0 0 395.52 61.16836160238883" height="61.16836160238883" width="395.52"><g><svg viewBox="0 0 564.7499114850539 87.34027811649186" height="61.16836160238883" width="395.52"><g transform="matrix(1,0,0,1,0,12.070906744030353)"><svg viewBox="0 0 395.52 63.198464628431154" height="63.198464628431154" width="395.52"><g id="textblocktransform"><svg viewBox="0 0 395.52 63.198464628431154" height="63.198464628431154" width="395.52" id="textblock"><g><svg viewBox="0 0 395.52 63.198464628431154" height="63.198464628431154" width="395.52"><g transform="matrix(1,0,0,1,0,0)"><svg width="395.52" viewBox="2.8 -35.35 220.67999999999998 35.800000000000004" height="63.198464628431154" data-palette-color="#336a86"><g class="wordmark-text-0" data-fill-palette-color="primary" id="text-0"><path d="M18.9-6.75L18.9-6.75Q18.9-3.5 16.63-1.6 14.35 0.3 10.4 0.3L10.4 0.3Q5.8 0.3 2.95-1.25L2.95-1.25 2.95-5.1Q6.3-3.1 10.15-3.1L10.15-3.1Q12.45-3.1 13.65-4 14.85-4.9 14.85-6.45L14.85-6.45Q14.85-8.25 13.53-9.25 12.2-10.25 9.1-11.5L9.1-11.5Q6.25-12.6 4.53-14.25 2.8-15.9 2.8-18.7L2.8-18.7Q2.8-21.85 5.18-23.73 7.55-25.6 11.1-25.6L11.1-25.6Q15.05-25.6 17.45-24.5L17.45-24.5 17.45-20.75Q15.15-22.15 11.15-22.15L11.15-22.15Q9.15-22.15 7.98-21.23 6.8-20.3 6.8-18.85L6.8-18.85Q6.8-17.95 7.15-17.28 7.5-16.6 8.53-15.95 9.55-15.3 10.03-15.08 10.5-14.85 12.1-14.15L12.1-14.15Q15.3-12.85 17.1-11.2 18.9-9.55 18.9-6.75ZM44.25-17.35L44.25 0 40.3 0 40.3-16.4Q40.3-19.15 38.87-20.65 37.45-22.15 35.15-22.15L35.15-22.15Q32.35-22.15 30.25-20 28.15-17.85 28.15-13.85L28.15-13.85 28.15 0 24.25 0 24.25-35.35 28.15-35.35 28.15-20.95Q30.4-25.7 36.15-25.7L36.15-25.7Q39.8-25.7 42.02-23.45 44.25-21.2 44.25-17.35L44.25-17.35ZM73.55-12.6L73.55-12.6Q73.55-6.95 70.34-3.25 67.14 0.45 61.55 0.45L61.55 0.45Q56.09 0.45 52.92-3.23 49.74-6.9 49.74-12.5L49.74-12.5Q49.74-18.15 53.02-21.93 56.3-25.7 61.55-25.7L61.55-25.7Q67.3-25.7 70.42-22 73.55-18.3 73.55-12.6ZM53.84-12.55L53.84-12.55Q53.84-8.6 55.95-5.83 58.05-3.05 61.55-3.05L61.55-3.05Q65.34-3.05 67.39-5.78 69.44-8.5 69.44-12.55L69.44-12.55Q69.44-16.75 67.5-19.48 65.55-22.2 61.55-22.2L61.55-22.2Q57.95-22.2 55.89-19.4 53.84-16.6 53.84-12.55ZM83.24-13.85L83.24 0 79.29 0 79.34-25.35 83.24-25.35 83.24-20.9Q85.24-25.6 90.14-25.6L90.14-25.6Q91.04-25.6 91.54-25.5L91.54-25.5 91.54-21.6Q90.49-21.95 89.39-21.95L89.39-21.95Q86.74-21.95 84.99-19.5 83.24-17.05 83.24-13.85L83.24-13.85ZM108.34-4.4L108.34-0.65Q106.69 0.25 104.64 0.25L104.64 0.25Q97.14 0.25 97.14-7.4L97.14-7.4 97.14-22.15 93.09-22.15 93.09-25.35 97.14-25.35 97.14-31.65 101.09-31.65 101.09-25.35 108.09-25.35 108.09-22.15 101.09-22.15 101.09-7.3Q101.09-3.25 104.89-3.25L104.89-3.25Q106.84-3.25 108.34-4.4L108.34-4.4ZM132.59-5L132.59-1.3Q129.64 0.25 125.39 0.25L125.39 0.25Q119.64 0.25 116.11-3.28 112.59-6.8 112.59-12.6L112.59-12.6Q112.59-18.65 115.74-22.15 118.89-25.65 123.84-25.65L123.84-25.65Q128.59-25.65 131.39-22.6 134.19-19.55 134.19-13.95L134.19-13.95Q134.19-12.35 133.94-11L133.94-11 116.64-11Q117.09-7.25 119.49-5.25 121.89-3.25 125.79-3.25L125.79-3.25Q130.04-3.25 132.59-5L132.59-5ZM123.84-22.2L123.84-22.2Q120.99-22.2 118.99-20.15 116.99-18.1 116.64-14.3L116.64-14.3 130.24-14.3 130.24-15.3Q130.24-18.45 128.54-20.33 126.84-22.2 123.84-22.2ZM160.19-17.45L160.19 0 156.24 0 156.24-16.4Q156.24-19.2 154.81-20.68 153.38-22.15 151.09-22.15L151.09-22.15Q148.23-22.15 146.16-19.95 144.09-17.75 144.09-13.85L144.09-13.85 144.09 0 140.19 0 140.19-25.35 144.09-25.35 144.09-20.95Q146.34-25.7 152.09-25.7L152.09-25.7Q155.78-25.7 157.99-23.45 160.19-21.2 160.19-17.45L160.19-17.45Z" fill="#ffffff" data-fill-palette-color="primary"></path><path d="M195.74-25.35L195.74 0 191.79 0 191.79-4.4Q189.79 0.3 183.84 0.3L183.84 0.3Q180.09 0.3 177.91-1.93 175.74-4.15 175.74-7.9L175.74-7.9 175.74-25.35 179.69-25.35 179.69-8.9Q179.69-6.15 181.09-4.7 182.49-3.25 184.89-3.25L184.89-3.25Q188.04-3.25 189.91-5.45 191.79-7.65 191.79-11.4L191.79-11.4 191.79-25.35 195.74-25.35ZM206.94-13.85L206.94 0 202.99 0 203.04-25.35 206.94-25.35 206.94-20.9Q208.94-25.6 213.84-25.6L213.84-25.6Q214.74-25.6 215.24-25.5L215.24-25.5 215.24-21.6Q214.19-21.95 213.09-21.95L213.09-21.95Q210.44-21.95 208.69-19.5 206.94-17.05 206.94-13.85L206.94-13.85ZM223.48-35.35L223.48 0 219.53 0 219.53-35.35 223.48-35.35Z" fill="#ffffff" data-fill-palette-color="secondary"></path></g></svg></g></svg></g></svg></g></svg></g><g transform="matrix(1,0,0,1,410.4396407356215,0)"><svg viewBox="0 0 154.31027074943233 87.34027811649186" height="87.34027811649186" width="154.31027074943233"><g><svg xmlns="http://www.w3.org/2000/svg" xmlns:xlink="http://www.w3.org/1999/xlink" version="1.1" x="0" y="0" viewBox="2.1719384521194316 23.89294308608966 93.82810870819274 53.107113803363816" enable-background="new 0 0 100 100" xml:space="preserve" height="87.34027811649186" width="154.31027074943233" class="icon-icon-0" data-fill-palette-color="accent" id="icon-0"><g fill="#283132" data-fill-palette-color="accent"><path fill="#ffffff" d="M95.979 39.391c-0.019-8.57-7.053-15.521-15.679-15.498l-37.655 0.096c-8.429 0.023-15.251 6.704-15.545 15.001l-9.328 0.023C9.146 39.036 2.148 46.026 2.172 54.594l0.017 6.907C2.211 70.069 9.245 77.023 17.872 77l37.655-0.095c8.423-0.021 15.248-6.708 15.542-15.006l9.331-0.022C89.026 61.857 96.021 54.87 96 46.3L95.979 39.391zM55.5 68.848l-37.648 0.096c-4.155 0.009-7.54-3.342-7.553-7.465l-0.02-6.904c-0.007-4.13 3.362-7.491 7.521-7.501l9.322-0.026c0.332 8.298 7.194 14.949 15.624 14.923l20.217-0.05C62.672 65.775 59.462 68.838 55.5 68.848zM35.23 47.026l20.217-0.052c3.958-0.011 7.178 3.035 7.494 6.888l-20.217 0.053C38.763 53.922 35.54 50.88 35.23 47.026zM80.38 53.816l-9.332 0.026c-0.336-8.298-7.193-14.945-15.62-14.926L35.21 38.97c0.29-3.852 3.497-6.915 7.455-6.928l37.655-0.095c4.152-0.015 7.541 3.338 7.55 7.467l0.017 6.908C87.9 50.444 84.528 53.811 80.38 53.816z" data-fill-palette-color="accent"></path></g></svg></g></svg></g></svg></g><defs></defs></svg><rect width="395.52" height="61.16836160238883" fill="none" stroke="none" visibility="hidden"></rect></g></svg></g></svg>